<?xml version="1.0" encoding="UTF-8" standalone="no"?><!DOCTYPE svg PUBLIC "-//W3C//DTD SVG 1.1//EN" "http://www.w3.org/Graphics/SVG/1.1/DTD/svg11.dtd"><svg width="100%" height="100%" viewBox="0 0 2552 617" version="1.1" xmlns="http://www.w3.org/2000/svg" xmlns:xlink="http://www.w3.org/1999/xlink" xml:space="preserve" xmlns:serif="http://www.serif.com/" style="fill-rule:evenodd;clip-rule:evenodd;stroke-linejoin:round;stroke-miterlimit:2;"><rect id="bs-logo-opaque-blue" x="0" y="0.119" width="2552" height="616" style="fill:none;"/><rect x="352" y="132.119" width="132" height="264" style="fill:#fafafa;"/><rect x="528" y="44.119" width="132" height="352" style="fill:#fafafa;"/><rect x="352" y="44.119" width="390.5" height="44" style="fill:#fafafa;"/><g><rect x="2332" y="484.119" width="44" height="44" style="fill:#354f98;"/><rect x="2068" y="528.119" width="44" height="44" style="fill:#354f98;"/><rect x="2112" y="440.119" width="44" height="44" style="fill:#354f98;"/><rect x="2156" y="484.119" width="44" height="44" style="fill:#354f98;"/><rect x="2464" y="396.119" width="44" height="44" style="fill:#354f98;"/><rect x="2420" y="440.119" width="44" height="44" style="fill:#354f98;"/><rect x="264" y="352.119" width="44" height="44" style="fill:#354f98;"/><rect x="264" y="44.119" width="44" height="44" style="fill:#354f98;"/><rect x="176" y="88.119" width="44" height="44" style="fill:#354f98;"/><rect x="176" y="220.119" width="44" height="44" style="fill:#354f98;"/><rect x="264" y="176.119" width="44" height="44" style="fill:#354f98;"/><rect x="352" y="88.119" width="132" height="44" style="fill:#354f98;"/><rect x="1760" y="88.119" width="44" height="88" style="fill:#354f98;"/><rect x="1848" y="44.119" width="44" height="44" style="fill:#354f98;"/><rect x="1848" y="352.119" width="44" height="44" style="fill:#354f98;"/><rect x="2200" y="352.119" width="44" height="44" style="fill:#354f98;"/><rect x="1452" y="88.119" width="44" height="44" style="fill:#354f98;"/><rect x="1540" y="352.119" width="44" height="44" style="fill:#354f98;"/><rect x="1320" y="352.119" width="44" height="44" style="fill:#354f98;"/><rect x="2200" y="220.119" width="44" height="88" style="fill:#354f98;"/><rect x="1892" y="176.119" width="44" height="88" style="fill:#354f98;"/><rect x="1584" y="132.119" width="44" height="132" style="fill:#354f98;"/><rect x="1276" y="132.119" width="44" height="132" style="fill:#354f98;"/><rect x="968" y="176.119" width="44" height="132" style="fill:#354f98;"/><rect x="660" y="264.119" width="44" height="88" style="fill:#354f98;"/><rect x="660" y="88.119" width="44" height="44" style="fill:#354f98;"/><rect x="2420" y="220.119" width="44" height="44" style="fill:#354f98;"/><rect x="2420" y="88.119" width="44" height="44" style="fill:#354f98;"/><rect x="2068" y="132.119" width="88" height="44" style="fill:#354f98;"/><rect x="2068" y="220.119" width="88" height="44" style="fill:#354f98;"/><rect x="2068" y="176.119" width="44" height="44" style="fill:#354f98;"/><rect x="2156" y="44.119" width="44" height="44" style="fill:#354f98;"/><rect x="2156" y="352.119" width="44" height="44" style="fill:#354f98;"/><rect x="1936" y="352.119" width="44" height="44" style="fill:#354f98;"/><rect x="1936" y="44.119" width="44" height="44" style="fill:#354f98;"/><rect x="1144" y="308.119" width="44" height="44" style="fill:#354f98;"/><rect x="1144" y="44.119" width="44" height="38" style="fill:#354f98;"/><rect x="1100" y="308.119" width="44" height="44" style="fill:#354f98;"/><rect x="1188" y="308.119" width="44" height="44" style="fill:#354f98;"/><rect x="880" y="88.119" width="44" height="44" style="fill:#354f98;"/><rect x="704" y="220.119" width="88" height="44" style="fill:#354f98;"/><rect x="2288" y="528.119" width="44" height="44" style="fill:#354f98;"/><rect x="2244" y="484.119" width="44" height="44" style="fill:#354f98;"/><rect x="2200" y="528.119" width="44" height="44" style="fill:#354f98;"/><rect x="2244" y="572.119" width="44" height="44" style="fill:#354f98;"/><rect x="2376" y="484.119" width="44" height="44" style="fill:#354f98;"/><rect x="2156" y="396.119" width="44" height="44" style="fill:#354f98;"/><rect x="2112" y="572.119" width="44" height="44" style="fill:#354f98;"/></g><rect x="2156" y="528.119" width="44" height="44" style="fill:#fafafa;"/><rect x="2112" y="484.119" width="44" height="44" style="fill:#fafafa;"/><path d="M308,176.119l-44,0l0,44l44,0l0,132l-44,0l-0,44l44,0l-264,0l0,-352l264,0l0,132Zm-88,44l-44,0l0,44l44,0l0,-44Zm0,-132l-44,0l0,44l44,0l0,-44Zm44,-44l-0,44l44,0l-0,-44l-44,0Z" style="fill:#fafafa;"/><path d="M1892,352.119l-44,0l0,44l-220,0l0,-352l220,0l0,44l44,0l0,264Zm-88,-264l-44,0l0,88l44,0l0,-88Z" style="fill:#fafafa;"/><path d="M1452,44.119l0,88l44,0l0,-88l88,0l0,308l-44,0l0,44l44,0l-264,0l44,0l0,-44l-44,0l0,-308l132,0Z" style="fill:#fafafa;"/><path d="M2244,396.119l0,-352l264,0l0,44l-44,0l0,44l44,0l0,88l-88,0l0,44l88,0l0,132l-44,0l0,44l-44,0l-0,44l-88,0l0,44l-44,0l-0,-44l-44,0l0,44l-44,0l0,-44l-44,0l-0,-44l44,0l-0,-44l44,0Zm220,-308l-44,0l0,44l44,0l0,-44Z" style="fill:#fafafa;"/><path d="M2156,44.119l0,44l44,0l0,44l-44,0l0,44l44,0l0,220c-0,0 -0,-44 -0,-44l-44,0l0,44l-176,0l0,-44l-44,0l0,-264l44,0l0,-44l-44,0c0,0 220,0 220,0Zm-44,176l0,-44l44,0l-0,-44l-88,0l-0,132l88,0l0,-44l-44,0Z" style="fill:#fafafa;"/><path d="M1144,308.119l-44,0l0,88l-88,0l0,-352l264,0l0,352l-44,0l0,-88l-44,0l0,44l-44,0l0,-44Zm44,-264l-44,0l0,38l44,0l0,-38Z" style="fill:#fafafa;"/><path d="M968,132.119l0,264l-264,0l0,-132l88,0l0,-44l-88,0l0,-176l264,0l0,44l-88,0l0,44l88,0Z" style="fill:#fafafa;"/></svg>